<mxfile host="app.diagrams.net" modified="2024-06-12T11:29:31.022Z" agent="Mozilla/5.0 (Windows NT 10.0; Win64; x64) AppleWebKit/537.36 (KHTML, like Gecko) Chrome/124.0.0.0 Safari/537.36" etag="X9FEbEeorAzD9Ek0YFSy" version="24.5.2" type="device">
  <diagram name="Page-1" id="x9_yD1l7UnJsW5sq795G">
    <mxGraphModel dx="880" dy="468" grid="1" gridSize="10" guides="1" tooltips="1" connect="1" arrows="1" fold="1" page="1" pageScale="1" pageWidth="850" pageHeight="1100" math="0" shadow="0">
      <root>
        <mxCell id="0" />
        <mxCell id="1" parent="0" />
        <mxCell id="MmkkaJhTPR_O1y5_FcJU-25" value="" style="group" vertex="1" connectable="0" parent="1">
          <mxGeometry x="310" y="80" width="240" height="820" as="geometry" />
        </mxCell>
        <mxCell id="MmkkaJhTPR_O1y5_FcJU-8" style="edgeStyle=orthogonalEdgeStyle;rounded=0;orthogonalLoop=1;jettySize=auto;html=1;exitX=0.5;exitY=1;exitDx=0;exitDy=0;entryX=0.5;entryY=0;entryDx=0;entryDy=0;" edge="1" parent="MmkkaJhTPR_O1y5_FcJU-25" source="MmkkaJhTPR_O1y5_FcJU-1" target="MmkkaJhTPR_O1y5_FcJU-2">
          <mxGeometry relative="1" as="geometry" />
        </mxCell>
        <mxCell id="MmkkaJhTPR_O1y5_FcJU-1" value="start" style="ellipse;whiteSpace=wrap;html=1;" vertex="1" parent="MmkkaJhTPR_O1y5_FcJU-25">
          <mxGeometry width="120" height="50" as="geometry" />
        </mxCell>
        <mxCell id="MmkkaJhTPR_O1y5_FcJU-9" style="edgeStyle=orthogonalEdgeStyle;rounded=0;orthogonalLoop=1;jettySize=auto;html=1;exitX=0.5;exitY=1;exitDx=0;exitDy=0;entryX=0.5;entryY=0;entryDx=0;entryDy=0;" edge="1" parent="MmkkaJhTPR_O1y5_FcJU-25" source="MmkkaJhTPR_O1y5_FcJU-2" target="MmkkaJhTPR_O1y5_FcJU-3">
          <mxGeometry relative="1" as="geometry" />
        </mxCell>
        <mxCell id="MmkkaJhTPR_O1y5_FcJU-2" value="name,pass,email,&lt;div&gt;phonenumber,&lt;/div&gt;&lt;div&gt;Idnumber&lt;/div&gt;" style="shape=parallelogram;perimeter=parallelogramPerimeter;whiteSpace=wrap;html=1;fixedSize=1;" vertex="1" parent="MmkkaJhTPR_O1y5_FcJU-25">
          <mxGeometry x="-5" y="100" width="130" height="60" as="geometry" />
        </mxCell>
        <mxCell id="MmkkaJhTPR_O1y5_FcJU-10" style="edgeStyle=orthogonalEdgeStyle;rounded=0;orthogonalLoop=1;jettySize=auto;html=1;entryX=0.5;entryY=0;entryDx=0;entryDy=0;" edge="1" parent="MmkkaJhTPR_O1y5_FcJU-25" source="MmkkaJhTPR_O1y5_FcJU-3" target="MmkkaJhTPR_O1y5_FcJU-4">
          <mxGeometry relative="1" as="geometry" />
        </mxCell>
        <mxCell id="MmkkaJhTPR_O1y5_FcJU-3" value="validate&lt;div&gt;kyc&lt;/div&gt;" style="shape=process;whiteSpace=wrap;html=1;backgroundOutline=1;" vertex="1" parent="MmkkaJhTPR_O1y5_FcJU-25">
          <mxGeometry y="210" width="120" height="60" as="geometry" />
        </mxCell>
        <mxCell id="MmkkaJhTPR_O1y5_FcJU-4" value="is KYC valid" style="rhombus;whiteSpace=wrap;html=1;" vertex="1" parent="MmkkaJhTPR_O1y5_FcJU-25">
          <mxGeometry y="337" width="120" height="103" as="geometry" />
        </mxCell>
        <mxCell id="MmkkaJhTPR_O1y5_FcJU-12" style="edgeStyle=orthogonalEdgeStyle;rounded=0;orthogonalLoop=1;jettySize=auto;html=1;exitX=0.5;exitY=1;exitDx=0;exitDy=0;exitPerimeter=0;entryX=0.5;entryY=0;entryDx=0;entryDy=0;" edge="1" parent="MmkkaJhTPR_O1y5_FcJU-25" source="MmkkaJhTPR_O1y5_FcJU-5" target="MmkkaJhTPR_O1y5_FcJU-6">
          <mxGeometry relative="1" as="geometry" />
        </mxCell>
        <mxCell id="MmkkaJhTPR_O1y5_FcJU-5" value="save KYC" style="shape=cylinder3;whiteSpace=wrap;html=1;boundedLbl=1;backgroundOutline=1;size=15;" vertex="1" parent="MmkkaJhTPR_O1y5_FcJU-25">
          <mxGeometry x="30" y="530" width="60" height="80" as="geometry" />
        </mxCell>
        <mxCell id="MmkkaJhTPR_O1y5_FcJU-6" value="stop" style="ellipse;whiteSpace=wrap;html=1;" vertex="1" parent="MmkkaJhTPR_O1y5_FcJU-25">
          <mxGeometry y="690" width="120" height="80" as="geometry" />
        </mxCell>
        <mxCell id="MmkkaJhTPR_O1y5_FcJU-11" style="edgeStyle=orthogonalEdgeStyle;rounded=0;orthogonalLoop=1;jettySize=auto;html=1;entryX=0.5;entryY=0;entryDx=0;entryDy=0;entryPerimeter=0;" edge="1" parent="MmkkaJhTPR_O1y5_FcJU-25" source="MmkkaJhTPR_O1y5_FcJU-4" target="MmkkaJhTPR_O1y5_FcJU-5">
          <mxGeometry relative="1" as="geometry" />
        </mxCell>
        <mxCell id="MmkkaJhTPR_O1y5_FcJU-23" value="yes" style="edgeLabel;html=1;align=center;verticalAlign=middle;resizable=0;points=[];" vertex="1" connectable="0" parent="MmkkaJhTPR_O1y5_FcJU-11">
          <mxGeometry x="-0.4222" relative="1" as="geometry">
            <mxPoint as="offset" />
          </mxGeometry>
        </mxCell>
        <mxCell id="MmkkaJhTPR_O1y5_FcJU-21" value="" style="endArrow=classic;html=1;rounded=0;exitX=1;exitY=0.5;exitDx=0;exitDy=0;" edge="1" parent="MmkkaJhTPR_O1y5_FcJU-25" source="MmkkaJhTPR_O1y5_FcJU-4">
          <mxGeometry width="50" height="50" relative="1" as="geometry">
            <mxPoint x="60" y="310" as="sourcePoint" />
            <mxPoint x="60" y="70" as="targetPoint" />
            <Array as="points">
              <mxPoint x="240" y="388" />
              <mxPoint x="240" y="70" />
            </Array>
          </mxGeometry>
        </mxCell>
        <mxCell id="MmkkaJhTPR_O1y5_FcJU-22" value="No" style="edgeLabel;html=1;align=center;verticalAlign=middle;resizable=0;points=[];" vertex="1" connectable="0" parent="MmkkaJhTPR_O1y5_FcJU-21">
          <mxGeometry x="-0.0291" y="-1" relative="1" as="geometry">
            <mxPoint as="offset" />
          </mxGeometry>
        </mxCell>
        <mxCell id="MmkkaJhTPR_O1y5_FcJU-24" value="&lt;b&gt;Register User&lt;/b&gt;" style="text;html=1;align=center;verticalAlign=middle;whiteSpace=wrap;rounded=0;" vertex="1" parent="1">
          <mxGeometry x="350" y="20" width="60" height="30" as="geometry" />
        </mxCell>
      </root>
    </mxGraphModel>
  </diagram>
</mxfile>
